<?xml version="1.0" encoding="utf-8"?>
<!-- Generator: Adobe Illustrator 25.4.1, SVG Export Plug-In . SVG Version: 6.00 Build 0)  -->
<svg version="1.1" id="Outline" xmlns="http://www.w3.org/2000/svg" xmlns:xlink="http://www.w3.org/1999/xlink" x="0px" y="0px"
	 viewBox="0 0 512 512" style="enable-background:new 0 0 512 512;" xml:space="preserve">
<style type="text/css">
	.st0{fill:#F87CB3;}
	.st1{fill:#FFFFFF;}
</style>
<g>
	<path class="st0" d="M271,512c-10,0-20,0-30,0c-1.3-0.3-2.6-0.7-3.9-0.8c-36.1-2.4-70.2-12-101.7-29.5
		C63.4,441.7,19.3,381.2,4,300.1c-1.8-9.6-2.7-19.4-4-29.1c0-10,0-20,0-30c0.3-1.4,0.8-2.9,0.9-4.3C3.8,196.8,15,159.4,36,125.4
		C84,48,153.9,5.9,244.8,0.5c50.8-3,98.8,9,142.1,35.8c77.4,48,119.3,118,124.6,209c2.7,46.2-7.3,90.2-29.6,130.8
		C442.2,448.3,381.6,492.4,300.6,508C290.8,509.8,280.9,510.7,271,512z"/>
	<path class="st1" d="M156.6,249c0-29.1,0-58.2,0-87.3c0-11.2,2-13.3,12.9-13.3c57.7,0,115.4,0,173.1,0c10.8,0,12.9,2,12.9,13.1
		c0,58.2,0,116.4,0,174.5c0,11.5-1.6,13.1-13.5,13.1c-57.3,0-114.5,0-171.8,0c-12,0-13.5-1.6-13.5-13.8
		C156.6,306.7,156.6,277.9,156.6,249z"/>
</g>
</svg>
