<?xml version="1.0" encoding="utf-8"?>
<!-- Generator: Adobe Illustrator 25.4.1, SVG Export Plug-In . SVG Version: 6.00 Build 0)  -->
<svg version="1.1" id="Layer_1" xmlns="http://www.w3.org/2000/svg" xmlns:xlink="http://www.w3.org/1999/xlink" x="0px" y="0px"
	 viewBox="0 0 512 512" style="enable-background:new 0 0 512 512;" xml:space="preserve">
<style type="text/css">
	.st0{fill:#5B5F80;}
</style>
<path class="st0" d="M405.3,0H106.7C47.8,0.1,0.1,47.8,0,106.7v298.7C0.1,464.2,47.8,511.9,106.7,512h298.7
	c58.9-0.1,106.6-47.8,106.7-106.7V106.7C511.9,47.8,464.2,0.1,405.3,0z M469.3,106.7v42.7v1.3H188.1v-108h217.3
	C440.7,42.7,469.3,71.3,469.3,106.7z M42.7,405.3V192v-42.7v-42.7c0-35.3,28.7-64,64-64h38.5v426.7h-38.5
	C71.3,469.3,42.7,440.7,42.7,405.3z M405.3,469.3H188.1V193.5h281.3v211.8C469.3,440.7,440.7,469.3,405.3,469.3z"/>
</svg>
